<?xml version="1.0" encoding="UTF-8" standalone="no"?>
<!DOCTYPE svg PUBLIC "-//W3C//DTD SVG 1.1//EN"
 "http://www.w3.org/Graphics/SVG/1.1/DTD/svg11.dtd">
<!-- Generated by graphviz version 2.47.3 (20210619.1520)
 -->
<!-- Title: dependencies Pages: 1 -->
<svg width="1143pt" height="247pt"
 viewBox="0.00 0.00 1143.00 246.80" xmlns="http://www.w3.org/2000/svg" xmlns:xlink="http://www.w3.org/1999/xlink">
<g id="graph0" class="graph" transform="scale(1 1) rotate(0) translate(4 242.8)">
<title>dependencies</title>
<polygon fill="white" stroke="transparent" points="-4,4 -4,-242.8 1139,-242.8 1139,4 -4,4"/>
<text text-anchor="middle" x="567.5" y="-8.2" font-family="sans-serif" font-size="14.00">dependencies</text>
<g id="clust1" class="cluster">
<title>cluster_AppModule</title>
<polygon fill="none" stroke="black" stroke-dasharray="1,5" points="8,-32.8 8,-230.8 1127,-230.8 1127,-32.8 8,-32.8"/>
</g>
<g id="clust10" class="cluster">
<title>cluster_AppModule_imports</title>
<polygon fill="none" stroke="black" points="975,-40.8 975,-92.8 1119,-92.8 1119,-40.8 975,-40.8"/>
</g>
<g id="clust12" class="cluster">
<title>cluster_AppModule_bootstrap</title>
<polygon fill="none" stroke="black" points="515,-170.8 515,-222.8 639,-222.8 639,-170.8 515,-170.8"/>
</g>
<g id="clust2" class="cluster">
<title>cluster_AppModule_declarations</title>
<polygon fill="none" stroke="black" points="16,-40.8 16,-92.8 967,-92.8 967,-40.8 16,-40.8"/>
</g>
<!-- AppComponent -->
<g id="node1" class="node">
<title>AppComponent</title>
<polygon fill="#ffffb3" stroke="black" points="958.94,-84.8 853.06,-84.8 853.06,-48.8 958.94,-48.8 958.94,-84.8"/>
<text text-anchor="middle" x="906" y="-62.6" font-family="Times,serif" font-size="14.00">AppComponent</text>
</g>
<!-- AppModule -->
<g id="node8" class="node">
<title>AppModule</title>
<polygon fill="#8dd3c7" stroke="black" points="618.66,-149.8 615.66,-153.8 594.66,-153.8 591.66,-149.8 535.34,-149.8 535.34,-113.8 618.66,-113.8 618.66,-149.8"/>
<text text-anchor="middle" x="577" y="-127.6" font-family="Times,serif" font-size="14.00">AppModule</text>
</g>
<!-- AppComponent&#45;&gt;AppModule -->
<g id="edge1" class="edge">
<title>AppComponent&#45;&gt;AppModule</title>
<path fill="none" stroke="black" d="M906,-84.91C906,-104.14 906,-131.8 906,-131.8 906,-131.8 628.67,-131.8 628.67,-131.8"/>
<polygon fill="black" stroke="black" points="628.67,-128.3 618.67,-131.8 628.67,-135.3 628.67,-128.3"/>
</g>
<!-- HomeComponent -->
<g id="node2" class="node">
<title>HomeComponent</title>
<polygon fill="#ffffb3" stroke="black" points="835.55,-84.8 720.45,-84.8 720.45,-48.8 835.55,-48.8 835.55,-84.8"/>
<text text-anchor="middle" x="778" y="-62.6" font-family="Times,serif" font-size="14.00">HomeComponent</text>
</g>
<!-- HomeComponent&#45;&gt;AppModule -->
<g id="edge2" class="edge">
<title>HomeComponent&#45;&gt;AppModule</title>
<path fill="none" stroke="black" d="M778,-84.83C778,-101.2 778,-122.8 778,-122.8 778,-122.8 629.14,-122.8 629.14,-122.8"/>
<polygon fill="black" stroke="black" points="629.14,-119.3 619.14,-122.8 629.14,-126.3 629.14,-119.3"/>
</g>
<!-- LoginComponent -->
<g id="node3" class="node">
<title>LoginComponent</title>
<polygon fill="#ffffb3" stroke="black" points="702.28,-84.8 587.72,-84.8 587.72,-48.8 702.28,-48.8 702.28,-84.8"/>
<text text-anchor="middle" x="645" y="-62.6" font-family="Times,serif" font-size="14.00">LoginComponent</text>
</g>
<!-- LoginComponent&#45;&gt;AppModule -->
<g id="edge3" class="edge">
<title>LoginComponent&#45;&gt;AppModule</title>
<path fill="none" stroke="black" d="M603.22,-84.91C603.22,-84.91 603.22,-103.79 603.22,-103.79"/>
<polygon fill="black" stroke="black" points="599.72,-103.79 603.22,-113.79 606.72,-103.79 599.72,-103.79"/>
</g>
<!-- LogoutComponent -->
<g id="node4" class="node">
<title>LogoutComponent</title>
<polygon fill="#ffffb3" stroke="black" points="569.78,-84.8 448.22,-84.8 448.22,-48.8 569.78,-48.8 569.78,-84.8"/>
<text text-anchor="middle" x="509" y="-62.6" font-family="Times,serif" font-size="14.00">LogoutComponent</text>
</g>
<!-- LogoutComponent&#45;&gt;AppModule -->
<g id="edge4" class="edge">
<title>LogoutComponent&#45;&gt;AppModule</title>
<path fill="none" stroke="black" d="M552.53,-84.91C552.53,-84.91 552.53,-103.79 552.53,-103.79"/>
<polygon fill="black" stroke="black" points="549.03,-103.79 552.53,-113.79 556.03,-103.79 549.03,-103.79"/>
</g>
<!-- NavbarComponent -->
<g id="node5" class="node">
<title>NavbarComponent</title>
<polygon fill="#ffffb3" stroke="black" points="430.03,-84.8 307.97,-84.8 307.97,-48.8 430.03,-48.8 430.03,-84.8"/>
<text text-anchor="middle" x="369" y="-62.6" font-family="Times,serif" font-size="14.00">NavbarComponent</text>
</g>
<!-- NavbarComponent&#45;&gt;AppModule -->
<g id="edge5" class="edge">
<title>NavbarComponent&#45;&gt;AppModule</title>
<path fill="none" stroke="black" d="M369,-84.83C369,-101.2 369,-122.8 369,-122.8 369,-122.8 524.91,-122.8 524.91,-122.8"/>
<polygon fill="black" stroke="black" points="524.91,-126.3 534.91,-122.8 524.91,-119.3 524.91,-126.3"/>
</g>
<!-- ProfileComponent -->
<g id="node6" class="node">
<title>ProfileComponent</title>
<polygon fill="#ffffb3" stroke="black" points="289.93,-84.8 170.07,-84.8 170.07,-48.8 289.93,-48.8 289.93,-84.8"/>
<text text-anchor="middle" x="230" y="-62.6" font-family="Times,serif" font-size="14.00">ProfileComponent</text>
</g>
<!-- ProfileComponent&#45;&gt;AppModule -->
<g id="edge6" class="edge">
<title>ProfileComponent&#45;&gt;AppModule</title>
<path fill="none" stroke="black" d="M230,-84.91C230,-104.14 230,-131.8 230,-131.8 230,-131.8 525.14,-131.8 525.14,-131.8"/>
<polygon fill="black" stroke="black" points="525.14,-135.3 535.14,-131.8 525.14,-128.3 525.14,-135.3"/>
</g>
<!-- RegisterComponent -->
<g id="node7" class="node">
<title>RegisterComponent</title>
<polygon fill="#ffffb3" stroke="black" points="151.98,-84.8 24.02,-84.8 24.02,-48.8 151.98,-48.8 151.98,-84.8"/>
<text text-anchor="middle" x="88" y="-62.6" font-family="Times,serif" font-size="14.00">RegisterComponent</text>
</g>
<!-- RegisterComponent&#45;&gt;AppModule -->
<g id="edge7" class="edge">
<title>RegisterComponent&#45;&gt;AppModule</title>
<path fill="none" stroke="black" d="M88,-85.09C88,-107.01 88,-140.8 88,-140.8 88,-140.8 525.31,-140.8 525.31,-140.8"/>
<polygon fill="black" stroke="black" points="525.31,-144.3 535.31,-140.8 525.31,-137.3 525.31,-144.3"/>
</g>
<!-- AppComponent  -->
<g id="node10" class="node">
<title>AppComponent </title>
<polygon fill="#80b1d3" stroke="black" points="631.44,-214.8 522.56,-214.8 522.56,-178.8 631.44,-178.8 631.44,-214.8"/>
<text text-anchor="middle" x="577" y="-192.6" font-family="Times,serif" font-size="14.00">AppComponent </text>
</g>
<!-- AppModule&#45;&gt;AppComponent  -->
<g id="edge9" class="edge">
<title>AppModule&#45;&gt;AppComponent </title>
<path fill="none" stroke="black" stroke-dasharray="1,5" d="M577,-149.91C577,-149.91 577,-168.79 577,-168.79"/>
<polygon fill="black" stroke="black" points="573.5,-168.79 577,-178.79 580.5,-168.79 573.5,-168.79"/>
</g>
<!-- AppRoutingModule -->
<g id="node9" class="node">
<title>AppRoutingModule</title>
<polygon fill="#8dd3c7" stroke="black" points="1111.27,-84.8 1108.27,-88.8 1087.27,-88.8 1084.27,-84.8 982.73,-84.8 982.73,-48.8 1111.27,-48.8 1111.27,-84.8"/>
<text text-anchor="middle" x="1047" y="-62.6" font-family="Times,serif" font-size="14.00">AppRoutingModule</text>
</g>
<!-- AppRoutingModule&#45;&gt;AppModule -->
<g id="edge8" class="edge">
<title>AppRoutingModule&#45;&gt;AppModule</title>
<path fill="none" stroke="black" d="M1047,-85.09C1047,-107.01 1047,-140.8 1047,-140.8 1047,-140.8 628.71,-140.8 628.71,-140.8"/>
<polygon fill="black" stroke="black" points="628.71,-137.3 618.71,-140.8 628.71,-144.3 628.71,-137.3"/>
</g>
</g>
</svg>
